{"title":"Fargo S01E05 HDTV x264 AAC [GWC].mp4","uid":10146098,"size":127125062,"categoryP":"video","categoryS":"tv_shows","magnet":"?xt=urn:btih:3a35e53710f3825a50edf118d536d9fb8151eca6&amp;dn=Fargo+S01E05+HDTV+x264+AAC+%5BGWC%5D.mp4&amp;tr=udp%3A%2F%2Ftracker.openbittorrent.com%3A80&amp;tr=udp%3A%2F%2Fopen.demonii.com%3A1337&amp;tr=udp%3A%2F%2Ftracker.coppersurfer.tk%3A6969&amp;tr=udp%3A%2F%2Fexodus.desync.com%3A6969","seeders":4,"leechers":0,"uploader":"canc232","files":1,"time":1400056174,"description":"Fargo S01E05 HDTV x264 AAC [GWC] \n\n\nSTORYLINE :\nA drifter named Lorne Malvo arrives in small-town Minnesota and influences the population with his malice and violence, including put-upon insurance salesman Lester Nygaard.\n\n\nSCREENS : &lt;a href=&quot;\nhttp://i.imgur.com/bqy7YUq.jpg&quot; rel=&quot;nofollow&quot; target=&quot;_NEW&quot;&gt;\nhttp://i.imgur.com/bqy7YUq.jpg&lt;/a&gt; &lt;a href=&quot;\nhttp://i.imgur.com/j2UiNCC.jpg&quot; rel=&quot;nofollow&quot; target=&quot;_NEW&quot;&gt;\nhttp://i.imgur.com/j2UiNCC.jpg&lt;/a&gt; &lt;a href=&quot;\nhttp://i.imgur.com/RMgrswF.jpg&quot; rel=&quot;nofollow&quot; target=&quot;_NEW&quot;&gt;\nhttp://i.imgur.com/RMgrswF.jpg&lt;/a&gt;\n\n\nMEDIA INFO :\nGeneral \nFormat : MPEG-4 \nFormat profile : Base Media \nFile size : 121 MiB \nDuration : 50mn 45s \nOverall bit rate mode : Variable \nOverall bit rate : 334 Kbps \n\nVideo \nFormat : AVC \nFormat profile : &lt;a class=&quot;__cf_email__&quot; href=&quot;/cdn-cgi/l/email-protection&quot; data-cfemail=&quot;0d45646a654d413e233d&quot;&gt;[email&amp;#160;protected]&lt;/a&gt;&lt;script cf-hash='f9e31' type=&quot;text/javascript&quot;&gt;\n/* &lt;![CDATA[ */!function(){try{var t=&quot;currentScript&quot;in document?document.currentScript:function(){for(var t=document.getElementsByTagName(&quot;script&quot;),e=t.length;e--;)if(t[e].getAttribute(&quot;cf-hash&quot;))return t[e]}();if(t&amp;&amp;t.previousSibling){var e,r,n,i,c=t.previousSibling,a=c.getAttribute(&quot;data-cfemail&quot;);if(a){for(e=&quot;&quot;,r=parseInt(a.substr(0,2),16),n=2;a.length-n;n+=2)i=parseInt(a.substr(n,2),16)^r,e+=String.fromCharCode(i);e=document.createTextNode(e),c.parentNode.replaceChild(e,c)}}}catch(u){}}();/* ]]&gt; */&lt;/script&gt; \nFormat settings, CABAC : Yes \nFormat settings, ReFrames : 4 frames \nDuration : 50mn 45s \nBit rate : 271 Kbps \nMaximum bit rate : 1 576 Kbps \nWidth : 720 pixels \nHeight : 404 pixels \nDisplay aspect ratio : 16:9 \nFrame rate : 23.976 fps \nStream size : 98.3 MiB (81%) \nTitle : Fargo S01E05 HDTV x264 AAC [GWC] \nWriting library : x264 core\n\nAudio \nFormat : AAC \nFormat profile : HE-AAC / LC \nDuration : 50mn 45s \nBit rate mode : Variable \nChannel(s) : 2 channels \nSampling rate : 48.0 KHz / 24.0 KHz \nStream size : 21.8 MiB (18%) \nLanguage : English \n","torrent":{"xt":"urn:btih:3a35e53710f3825a50edf118d536d9fb8151eca6","amp;dn":"Fargo+S01E05+HDTV+x264+AAC+%5BGWC%5D.mp4","amp;tr":["udp%3A%2F%2Ftracker.openbittorrent.com%3A80","udp%3A%2F%2Fopen.demonii.com%3A1337","udp%3A%2F%2Ftracker.coppersurfer.tk%3A6969","udp%3A%2F%2Fexodus.desync.com%3A6969"],"infoHash":"3a35e53710f3825a50edf118d536d9fb8151eca6","infoHashBuffer":{"type":"Buffer","data":[58,53,229,55,16,243,130,90,80,237,241,24,213,54,217,251,129,81,236,166]},"announce":[],"urlList":[]}}